<svg width="648" height="496" viewBox="0 0 648 496" fill="none" xmlns="http://www.w3.org/2000/svg">
<path d="M614.209 294.224C623.104 279.379 628.199 262.501 628.199 244.556C628.199 198.944 595.602 160.118 549.815 144.818C549.815 144.77 549.823 144.722 549.823 144.667C549.823 64.7693 476.135 0 385.235 0C308.552 0 244.308 46.1624 226.031 108.548C214.463 105.207 202.134 103.333 189.296 103.333C129.01 103.333 79.3905 143.241 72.5953 194.625C31.8088 202.21 1.19531 234.009 1.19531 272.111C1.19531 315.862 41.5508 351.333 91.327 351.333C92.7143 351.333 94.0859 351.251 95.4496 351.182C95.4182 352.387 95.2458 353.565 95.2458 354.778C95.2458 432.774 167.179 496 255.915 496C306.366 496 351.337 475.526 380.799 443.548C397.869 458.876 421.601 468.444 447.935 468.444C484.38 468.444 515.918 450.189 531.53 423.543C539.776 425.85 548.546 427.111 557.661 427.111C605.274 427.111 643.874 393.183 643.874 351.333C643.874 328.524 632.353 308.119 614.209 294.224Z" fill="#C7EDE6"/>
<path d="M567.223 204.75C567.223 204.75 593.358 204.75 611.2 204.75C629.043 204.75 643.51 191.652 643.51 175.5C643.51 160.336 630.716 148.011 614.395 146.542C614.553 145.366 614.79 144.215 614.79 143C614.79 126.847 600.323 113.75 582.48 113.75C572.155 113.75 563.073 118.209 557.156 125.034C556.151 107.9 540.628 94.25 521.45 94.25C501.626 94.25 485.55 108.804 485.55 126.75C485.55 129.649 486.103 132.405 486.893 135.083C482.283 130.033 475.398 126.75 467.6 126.75C454.813 126.75 444.38 135.428 442.793 146.608C441.494 146.465 440.223 146.25 438.88 146.25C421.038 146.25 406.57 159.348 406.57 175.5C406.57 191.652 421.038 204.75 438.88 204.75C456.723 204.75 507.09 204.75 507.09 204.75H545.683V208H567.223V204.75Z" fill="#FDFCEF"/>
<path d="M521.45 91C499.674 91 481.96 107.035 481.96 126.75C481.96 126.854 481.96 126.952 481.96 127.056C477.638 124.748 472.698 123.5 467.6 123.5C454.454 123.5 443.109 131.697 439.9 143.033C439.563 143.013 439.225 143 438.88 143C419.085 143 402.98 157.579 402.98 175.5C402.98 193.421 419.085 208 438.88 208H545.683C547.665 208 549.273 206.544 549.273 204.75C549.273 202.956 547.665 201.5 545.683 201.5H438.88C423.041 201.5 410.16 189.839 410.16 175.5C410.16 161.161 423.041 149.5 438.88 149.5C439.721 149.5 440.532 149.611 441.343 149.708L442.356 149.831C442.506 149.851 442.65 149.858 442.801 149.858C444.567 149.858 446.118 148.655 446.355 147.017C447.726 137.312 456.859 130 467.6 130C473.955 130 479.972 132.606 484.122 137.15C484.825 137.917 485.852 138.333 486.893 138.333C487.453 138.333 488.013 138.216 488.53 137.969C490.031 137.274 490.785 135.72 490.354 134.244C489.528 131.417 489.14 129.038 489.14 126.75C489.14 110.624 503.637 97.5 521.45 97.5C538.546 97.5 552.662 109.668 553.574 125.21C553.653 126.562 554.651 127.725 556.08 128.135C556.439 128.239 556.805 128.29 557.171 128.29C558.248 128.29 559.296 127.842 559.986 127.042C565.521 120.659 573.714 117 582.48 117C598.32 117 611.2 128.661 611.2 143C611.2 143.761 611.078 144.495 610.971 145.229L610.834 146.146C610.719 147.017 610.992 147.888 611.595 148.57C612.198 149.253 613.082 149.688 614.037 149.773C628.799 151.105 639.92 162.169 639.92 175.5C639.92 189.839 627.04 201.5 611.2 201.5H567.223C565.241 201.5 563.633 202.956 563.633 204.75C563.633 206.544 565.241 208 567.223 208H611.2C630.996 208 647.1 193.421 647.1 175.5C647.1 159.92 634.973 146.816 618.359 143.8C618.373 143.533 618.38 143.266 618.38 143C618.38 125.079 602.276 110.5 582.48 110.5C574.037 110.5 566.017 113.204 559.627 118.066C555.333 102.44 539.795 91 521.45 91Z" fill="#472B29"/>
<path d="M510.681 136.5C500.607 136.5 491.948 142.993 489.765 151.716C487.13 150.273 484.122 149.5 481.063 149.5C472.433 149.5 465.282 155.331 464.169 162.942C462.711 162.643 461.325 162.5 459.976 162.5C448.997 162.5 439.793 170.3 439.024 180.258C438.953 181.155 439.699 181.935 440.683 182C440.726 182 440.769 182 440.812 182C441.746 182 442.535 181.344 442.6 180.492C443.239 172.231 450.864 165.75 459.968 165.75C461.613 165.75 463.343 166.023 465.267 166.575C465.425 166.621 465.59 166.641 465.748 166.641C466.143 166.641 466.538 166.511 466.868 166.29C467.328 165.991 467.601 165.458 467.601 164.938C467.601 158.217 473.639 152.75 481.063 152.75C484.273 152.75 487.418 153.842 489.902 155.824C490.239 156.091 490.663 156.234 491.087 156.234C491.316 156.234 491.539 156.195 491.754 156.11C492.386 155.883 492.817 155.35 492.867 154.733C493.614 146.328 501.433 139.75 510.681 139.75C512.174 139.75 513.732 139.971 515.577 140.445C515.743 140.491 515.915 140.511 516.08 140.511C516.863 140.511 517.566 140.036 517.796 139.328C518.069 138.463 517.516 137.566 516.561 137.319C514.393 136.76 512.519 136.5 510.681 136.5ZM610.361 146.25C600.84 146.25 592.353 152.08 589.725 160.433C589.453 161.297 590.005 162.195 590.96 162.442C591.133 162.481 591.298 162.5 591.456 162.5C592.238 162.5 592.956 162.032 593.179 161.317C595.369 154.362 602.434 149.5 610.361 149.5C611.201 149.5 612.012 149.591 612.816 149.688C612.902 149.701 612.981 149.708 613.068 149.708C613.936 149.708 614.712 149.11 614.834 148.297C614.97 147.407 614.281 146.588 613.297 146.471C612.335 146.354 611.359 146.25 610.361 146.25Z" fill="#472B29"/>
<path d="M75.6063 221H4.48844C2.50676 221 0.898438 219.544 0.898438 217.75C0.898438 215.956 2.50676 214.5 4.48844 214.5H75.6063C77.588 214.5 79.1963 215.956 79.1963 217.75C79.1963 219.544 77.5952 221 75.6063 221ZM97.8284 221H90.6484C88.6668 221 87.0584 219.544 87.0584 217.75C87.0584 215.956 88.6668 214.5 90.6484 214.5H97.8284C99.8101 214.5 101.418 215.956 101.418 217.75C101.418 219.544 99.8173 221 97.8284 221ZM133.664 234H69.1084C67.1268 234 65.5184 232.544 65.5184 230.75C65.5184 228.956 67.1268 227.5 69.1084 227.5H133.664C135.646 227.5 137.254 228.956 137.254 230.75C137.254 232.544 135.646 234 133.664 234ZM54.7484 234H47.5684C45.5868 234 43.9784 232.544 43.9784 230.75C43.9784 228.956 45.5868 227.5 47.5684 227.5H54.7484C56.7301 227.5 58.3384 228.956 58.3384 230.75C58.3384 232.544 56.7373 234 54.7484 234ZM33.2084 234H18.8484C16.8668 234 15.2584 232.544 15.2584 230.75C15.2584 228.956 16.8668 227.5 18.8484 227.5H33.2084C35.1901 227.5 36.7984 228.956 36.7984 230.75C36.7984 232.544 35.1973 234 33.2084 234ZM76.2884 247H61.9284C59.9468 247 58.3384 245.544 58.3384 243.75C58.3384 241.956 59.9468 240.5 61.9284 240.5H76.2884C78.2701 240.5 79.8784 241.956 79.8784 243.75C79.8784 245.544 78.2701 247 76.2884 247ZM97.8284 188.5C96.5576 188.5 91.9193 188.5 90.6484 188.5C88.6668 188.5 87.0584 189.956 87.0584 191.75C87.0584 193.544 88.6668 195 90.6484 195C91.9193 195 96.5576 195 97.8284 195C99.8101 195 101.418 193.544 101.418 191.75C101.418 189.956 99.8101 188.5 97.8284 188.5ZM97.8284 201.5C96.5576 201.5 63.1993 201.5 61.9284 201.5C59.9468 201.5 58.3384 202.956 58.3384 204.75C58.3384 206.544 59.9468 208 61.9284 208C63.1993 208 96.5576 208 97.8284 208C99.8101 208 101.418 206.544 101.418 204.75C101.418 202.956 99.8101 201.5 97.8284 201.5ZM133.728 214.5C132.458 214.5 113.459 214.5 112.188 214.5C110.207 214.5 108.598 215.956 108.598 217.75C108.598 219.544 110.207 221 112.188 221C113.459 221 132.458 221 133.728 221C135.71 221 137.318 219.544 137.318 217.75C137.318 215.956 135.71 214.5 133.728 214.5Z" fill="white"/>
<path d="M449.652 45.5H377.852C375.87 45.5 374.262 44.044 374.262 42.25C374.262 40.456 375.87 39 377.852 39H449.652C451.633 39 453.242 40.456 453.242 42.25C453.242 44.044 451.633 45.5 449.652 45.5ZM478.372 45.5H464.012C462.03 45.5 460.422 44.044 460.422 42.25C460.422 40.456 462.03 39 464.012 39H478.372C480.353 39 481.962 40.456 481.962 42.25C481.962 44.044 480.353 45.5 478.372 45.5ZM514.272 58.5H442.472C440.49 58.5 438.882 57.044 438.882 55.25C438.882 53.456 440.49 52 442.472 52H514.272C516.253 52 517.862 53.456 517.862 55.25C517.862 57.044 516.261 58.5 514.272 58.5ZM428.112 58.5H420.932C418.95 58.5 417.342 57.044 417.342 55.25C417.342 53.456 418.95 52 420.932 52H428.112C430.093 52 431.702 53.456 431.702 55.25C431.702 57.044 430.093 58.5 428.112 58.5ZM405.674 58.5H392.212C390.23 58.5 388.622 57.044 388.622 55.25C388.622 53.456 390.23 52 392.212 52H405.674C407.656 52 409.264 53.456 409.264 55.25C409.264 57.044 407.656 58.5 405.674 58.5ZM471.192 32.5H435.292C433.31 32.5 431.702 31.044 431.702 29.25C431.702 27.456 433.31 26 435.292 26H471.192C473.173 26 474.782 27.456 474.782 29.25C474.782 31.044 473.181 32.5 471.192 32.5ZM449.652 71.5H435.292C433.31 71.5 431.702 70.044 431.702 68.25C431.702 66.456 433.31 65 435.292 65H449.652C451.633 65 453.242 66.456 453.242 68.25C453.242 70.044 451.633 71.5 449.652 71.5Z" fill="white"/>
<path d="M432.534 382.305C427.709 382.305 424.291 380.751 421.433 377.267C413.033 367.01 408.926 354.758 408.883 354.641L407.641 350.89L403.354 351.436C382.259 354.153 360.626 355.531 339.064 355.531C317.488 355.531 295.374 354.153 273.331 351.436L269.067 350.91L267.832 354.641C267.788 354.764 263.682 367.01 255.281 377.267C252.43 380.751 249.006 382.305 244.181 382.305C239.054 382.305 233.044 380.602 226.683 378.808L222.44 377.618C204.346 372.698 176.76 356.194 164.949 346.522C159.837 342.089 154.438 337.422 157.69 309.784C161.359 278.617 182.993 200.155 190.661 183.21C197.518 168.052 209.25 161.415 221.693 155.429C235.486 149.858 250.865 145.23 267.106 141.805C270.89 141.096 274.186 140.732 277.072 140.732C285.408 140.732 287.792 143.703 288.941 146.283L296.236 162.735L300.429 161.851C312.908 159.225 325.616 157.892 338.196 157.892C350.775 157.892 363.591 159.225 376.285 161.857L380.471 162.722L387.759 146.283C388.908 143.703 391.292 140.732 399.628 140.732C402.507 140.732 405.802 141.096 409.694 141.831C425.827 145.224 441.214 149.852 455.316 155.559C467.45 161.415 479.182 168.052 486.039 183.21C493.7 200.149 515.341 278.617 519.01 309.784C522.262 337.422 516.863 342.096 511.657 346.613C499.947 356.201 472.354 372.704 454.267 377.625L450.017 378.814C443.67 380.608 437.66 382.305 432.534 382.305Z" fill="#88CDD7"/>
<path d="M399.629 145.288C402.127 145.288 405.172 145.626 408.453 146.244C424.263 149.572 439.234 154.07 452.962 159.601C464.866 165.347 475.213 171.282 481.395 184.945C488.783 201.279 510.473 280.15 514.02 310.278C517.007 335.686 512.721 339.404 508.391 343.161C497.198 352.326 469.986 368.615 452.825 373.276C451.389 373.666 449.953 374.075 448.517 374.478C442.536 376.168 436.893 377.767 432.535 377.767C429.296 377.767 427.379 376.903 425.477 374.569C417.636 364.995 413.745 353.451 413.709 353.353L411.239 345.839L402.666 346.938C381.786 349.622 360.39 350.987 339.058 350.987C317.712 350.987 295.827 349.622 274.022 346.931L265.485 345.878L263.029 353.347C262.993 353.464 259.051 365.047 251.261 374.563C249.351 376.896 247.434 377.761 244.196 377.761C239.838 377.761 234.187 376.162 228.213 374.472C226.785 374.069 225.349 373.66 223.913 373.27C206.752 368.602 179.54 352.313 168.555 343.33C164.017 339.398 159.723 335.68 162.717 310.271C166.264 280.15 187.955 201.273 195.343 184.938C201.518 171.275 211.865 165.347 223.776 159.601C237.504 154.07 252.475 149.578 268.062 146.289C271.566 145.626 274.603 145.288 277.109 145.288C283.112 145.288 283.894 147.043 284.311 147.986L289.997 160.823L293.207 168.064L301.6 166.303C313.713 163.755 326.034 162.461 338.232 162.461C350.438 162.461 362.874 163.755 375.188 166.309L383.56 168.045L386.755 160.823L392.442 147.992C392.851 147.043 393.626 145.288 399.629 145.288ZM399.636 136.188C392.334 136.188 385.936 138.216 383.107 144.593L377.421 157.43C364.267 154.707 351.192 153.355 338.218 153.355C325.151 153.355 312.183 154.72 299.31 157.43L293.623 144.593C290.794 138.21 284.397 136.188 277.095 136.188C273.505 136.188 269.699 136.676 265.995 137.378C249.416 140.875 233.857 145.542 219.346 151.418C206.853 157.43 193.678 164.574 186.031 181.493C178.176 198.848 156.377 278.174 152.716 309.309C149.384 337.63 154.661 343.896 161.605 349.908C173.545 359.678 201.877 376.786 221.019 381.992C229.068 384.176 237.059 386.867 244.196 386.867C249.94 386.867 255.124 385.125 259.331 379.99C268.393 368.921 272.658 355.953 272.658 355.953C294.973 358.703 317.109 360.087 339.051 360.087C360.914 360.087 382.583 358.716 404.073 355.953C404.073 355.953 408.338 368.921 417.399 379.99C421.607 385.132 426.798 386.867 432.535 386.867C439.672 386.867 447.663 384.183 455.712 381.992C474.854 376.786 503.193 359.684 515.126 349.908C522.069 343.896 527.347 337.63 524.015 309.309C520.353 278.174 498.548 198.848 490.7 181.493C483.046 164.574 469.878 157.43 457.385 151.418C442.874 145.548 427.322 140.875 410.736 137.378C407.031 136.676 403.219 136.188 399.636 136.188Z" fill="#472B29"/>
<path d="M339.466 360.4C299.408 360.4 259.531 354.569 220.12 342.895C217.485 342.115 216.049 339.541 216.91 337.156C217.772 334.764 220.622 333.464 223.25 334.25C299.997 356.974 378.582 356.981 456.83 334.244C459.501 333.451 462.308 334.796 463.148 337.182C463.996 339.574 462.545 342.135 459.903 342.902C419.76 354.569 379.523 360.4 339.466 360.4ZM440.452 183.554C439.799 183.554 439.131 183.437 438.499 183.19C372.537 157.951 306.28 157.951 241.595 183.177C239.039 184.159 236.081 183.112 234.99 180.805C233.891 178.497 235.068 175.813 237.61 174.825C304.937 148.571 373.836 148.571 442.405 174.812C444.961 175.787 446.153 178.458 445.076 180.772C444.272 182.514 442.405 183.554 440.452 183.554Z" fill="#472B29"/>
<path d="M440.453 200.363C439.987 200.363 439.506 200.278 439.053 200.103C436.497 199.121 433.941 198.179 431.378 197.275C396.059 184.795 360.439 179.433 325.501 181.35C323.304 181.617 321.811 180.096 321.703 178.302C321.581 176.514 323.089 174.967 325.071 174.863C361.042 172.881 397.689 178.393 433.991 191.224C436.612 192.153 439.233 193.115 441.868 194.123C443.691 194.818 444.546 196.729 443.77 198.38C443.182 199.622 441.846 200.363 440.453 200.363ZM293.716 185.023C292.036 185.023 290.535 183.95 290.197 182.397C289.817 180.635 291.088 178.932 293.041 178.588C298.584 177.606 304.141 176.8 309.548 176.183C311.493 175.936 313.31 177.21 313.561 179.004C313.805 180.785 312.412 182.41 310.445 182.637C305.196 183.235 299.804 184.015 294.419 184.971C294.182 185.003 293.945 185.023 293.716 185.023ZM245.911 197.977C244.49 197.977 243.147 197.21 242.58 195.943C241.833 194.279 242.73 192.387 244.569 191.718C255.568 187.707 266.74 184.347 277.776 181.747C279.722 181.246 281.653 182.338 282.149 184.067C282.651 185.803 281.502 187.577 279.585 188.026C268.851 190.567 257.966 193.837 247.247 197.743C246.816 197.899 246.364 197.977 245.911 197.977Z" fill="#472B29"/>
<path d="M275.025 309.881C257.571 309.881 243.383 294.32 243.383 275.197C243.383 256.081 257.578 240.52 275.025 240.52C292.472 240.52 306.667 256.081 306.667 275.197C306.667 294.32 292.472 309.881 275.025 309.881Z" fill="#FFFEF4"/>
<path d="M275.028 245.064C289.704 245.064 301.644 258.584 301.644 275.198C301.644 291.812 289.704 305.332 275.028 305.332C260.352 305.332 248.411 291.812 248.411 275.198C248.411 258.584 260.345 245.064 275.028 245.064ZM275.028 235.964C254.773 235.964 238.359 253.533 238.359 275.198C238.359 296.862 254.78 314.432 275.028 314.432C295.282 314.432 311.696 296.862 311.696 275.198C311.696 253.533 295.275 235.964 275.028 235.964Z" fill="#472B29"/>
<path d="M401.697 309.882C384.242 309.882 370.055 294.321 370.055 275.198C370.055 256.082 384.25 240.521 401.697 240.521C419.144 240.521 433.339 256.082 433.339 275.198C433.346 294.321 419.152 309.882 401.697 309.882Z" fill="#FFFEF4"/>
<path d="M401.696 245.064C416.372 245.064 428.312 258.584 428.312 275.198C428.312 291.812 416.372 305.332 401.696 305.332C387.02 305.332 375.079 291.812 375.079 275.198C375.079 258.584 387.02 245.064 401.696 245.064ZM401.696 235.964C381.441 235.964 365.027 253.533 365.027 275.198C365.027 296.862 381.448 314.432 401.696 314.432C421.95 314.432 438.364 296.862 438.364 275.198C438.371 253.533 421.95 235.964 401.696 235.964Z" fill="#472B29"/>
<path d="M155.271 386.75C155.271 386.75 166.522 386.75 180.401 386.75C194.28 386.75 205.531 376.565 205.531 364C205.531 352.424 195.946 342.979 183.596 341.542C183.797 340.379 183.991 339.216 183.991 338C183.991 325.436 172.74 315.25 158.861 315.25C151.451 315.25 144.86 318.208 140.265 322.823C137.508 311.071 125.998 302.25 112.191 302.25C96.3306 302.25 83.4712 313.892 83.4712 328.25C83.4712 329.492 83.6866 330.681 83.8733 331.877C80.8003 329.641 76.9518 328.25 72.7012 328.25C63.8842 328.25 56.5821 334.016 55.0744 341.608C53.7891 341.426 52.5039 341.25 51.1612 341.25C37.2823 341.25 26.0312 351.436 26.0312 364C26.0312 376.565 37.2823 386.75 51.1612 386.75C65.0402 386.75 105.011 386.75 105.011 386.75V390H155.271V386.75Z" fill="#FDFCEF"/>
<path d="M167.836 357.5C166.845 357.5 166.041 356.772 166.041 355.875C166.041 347.926 173.185 341.458 181.966 341.458C182.211 341.517 187.258 341.452 190.898 342.342C191.853 342.576 192.421 343.467 192.162 344.331C191.904 345.202 190.92 345.716 189.965 345.475C186.777 344.695 182.067 344.695 181.974 344.708C175.167 344.708 169.631 349.72 169.631 355.875C169.631 356.772 168.827 357.5 167.836 357.5ZM119.371 383.5C118.419 383.5 117.506 383.842 116.833 384.452C116.159 385.061 115.781 385.888 115.781 386.75C115.781 387.612 116.159 388.439 116.833 389.048C117.506 389.658 118.419 390 119.371 390C120.323 390 121.237 389.658 121.91 389.048C122.583 388.439 122.961 387.612 122.961 386.75C122.961 385.888 122.583 385.061 121.91 384.452C121.237 383.842 120.323 383.5 119.371 383.5Z" fill="#472B29"/>
<path d="M180.401 390H155.271C153.29 390 151.681 388.544 151.681 386.75C151.681 384.956 153.29 383.5 155.271 383.5H180.401C192.277 383.5 201.941 374.751 201.941 364C201.941 354.276 193.864 346.008 183.144 344.767C182.182 344.65 181.313 344.195 180.732 343.493C180.15 342.791 179.906 341.907 180.057 341.042C180.222 340.041 180.401 339.04 180.401 338C180.401 327.249 170.737 318.5 158.861 318.5C152.758 318.5 147.101 320.808 142.929 325C142.031 325.904 140.624 326.287 139.339 325.962C138.032 325.644 137.034 324.695 136.754 323.499C134.306 313.073 123.974 305.5 112.191 305.5C98.334 305.5 87.0614 315.705 87.0614 328.25C87.0614 329.18 87.2122 330.07 87.3558 330.967C87.564 332.286 86.9034 333.814 85.6182 334.477C84.333 335.14 82.7749 335.244 81.6261 334.412C79.0054 332.507 75.9252 331.5 72.7014 331.5C65.7655 331.5 59.8348 335.991 58.6071 342.186C58.2624 343.921 56.4818 345.085 54.5216 344.819C53.4159 344.663 52.3102 344.5 51.1614 344.5C39.2857 344.5 29.6214 353.249 29.6214 364C29.6214 374.751 39.2857 383.5 51.1614 383.5H105.011C106.993 383.5 108.601 384.956 108.601 386.75C108.601 388.544 106.993 390 105.011 390H51.1614C35.3223 390 22.4414 378.339 22.4414 364C22.4414 349.661 35.3223 338 51.1614 338C51.585 338 51.9943 338.013 52.4107 338.039C55.3832 330.33 63.4464 325 72.7014 325C75.2072 325 77.6484 325.397 79.9604 326.17C81.1451 311.006 95.1461 299 112.191 299C125.338 299 137.077 306.325 142.01 317.031C146.892 313.794 152.794 312 158.861 312C174.7 312 187.581 323.661 187.581 338C187.581 338.312 187.574 338.617 187.553 338.923C200.067 341.835 209.121 352.099 209.121 364C209.121 378.339 196.24 390 180.401 390Z" fill="#472B29"/>
<path d="M140.911 383.5C139.769 383.5 134.872 383.5 133.731 383.5C131.749 383.5 130.141 384.956 130.141 386.75C130.141 388.544 131.749 390 133.731 390C134.872 390 139.769 390 140.911 390C142.892 390 144.501 388.544 144.501 386.75C144.501 384.956 142.892 383.5 140.911 383.5Z" fill="#472B29"/>
</svg>
