          <svg
            viewBox="0 0 52 46"
            fill="none"
            xmlns="http://www.w3.org/2000/svg"
          >
            <path
              d="M44.0202 7.96505C40.7059 6.61978 37.1518 5.62864 33.4358 5.06098C33.3681 5.05002 33.3005 5.0774 33.2656 5.13216C32.8086 5.85132 32.3023 6.78953 31.9477 7.52695C27.9509 6.99763 23.9746 6.99763 20.0597 7.52695C19.7051 6.77313 19.1804 5.85132 18.7212 5.13216C18.6864 5.07923 18.6188 5.05185 18.5511 5.06098C14.8371 5.62683 11.283 6.61796 7.96669 7.96505C7.93798 7.976 7.91337 7.99427 7.89704 8.01798C1.15568 16.9273 -0.691059 25.6177 0.21489 34.2003C0.218989 34.2423 0.245635 34.2825 0.282529 34.308C4.73029 37.1975 9.0387 38.9516 13.2671 40.1143C13.3348 40.1326 13.4065 40.1107 13.4495 40.0614C14.4498 38.8531 15.3414 37.579 16.1059 36.2392C16.151 36.1607 16.1079 36.0676 16.0157 36.0366C14.6015 35.562 13.2548 34.9834 11.9594 34.3263C11.857 34.2734 11.8488 34.1437 11.943 34.0816C12.2156 33.901 12.4883 33.7129 12.7486 33.5231C12.7957 33.4884 12.8613 33.4811 12.9167 33.503C21.4268 36.9401 30.64 36.9401 39.0497 33.503C39.1051 33.4793 39.1707 33.4866 39.2199 33.5213C39.4802 33.7111 39.7528 33.901 40.0275 34.0816C40.1217 34.1437 40.1156 34.2734 40.0131 34.3263C38.7177 34.9961 37.3711 35.562 35.9548 36.0348C35.8626 36.0658 35.8216 36.1607 35.8667 36.2392C36.6476 37.5771 37.5392 38.8512 38.5209 40.0596C38.562 40.1107 38.6357 40.1326 38.7034 40.1143C42.9523 38.9516 47.2607 37.1975 51.7084 34.308C51.7474 34.2825 51.772 34.2441 51.7761 34.2022C52.8603 24.2797 49.9601 15.6606 44.0878 8.0198C44.0734 7.99427 44.0489 7.976 44.0202 7.96505ZM17.3767 28.9744C14.8146 28.9744 12.7035 26.8936 12.7035 24.3381C12.7035 21.7827 14.7736 19.7019 17.3767 19.7019C20.0002 19.7019 22.0909 21.8009 22.0499 24.3381C22.0499 26.8936 19.9797 28.9744 17.3767 28.9744ZM34.6553 28.9744C32.0932 28.9744 29.9821 26.8936 29.9821 24.3381C29.9821 21.7827 32.0522 19.7019 34.6553 19.7019C37.2789 19.7019 39.3695 21.8009 39.3286 24.3381C39.3286 26.8936 37.2789 28.9744 34.6553 28.9744Z"
              fill="#5865F2"></path>
          </svg>