<svg width="628" height="603" viewBox="0 0 628 603" fill="none" xmlns="http://www.w3.org/2000/svg">
<g opacity="0.33">
<path d="M626.383 224.362C617.213 161.934 570.11 111.815 508.184 98.7517C486.83 94.2297 467.486 82.6736 453.418 65.8419C408.073 12.332 336.475 -11.1571 268.269 5.04658C200.062 21.3759 146.929 74.6346 130.6 142.966C123.189 172.736 103.343 197.732 75.9595 211.675C4.73862 248.604 -30.809 344.571 34.0058 434.633C42.5473 445.31 53.4753 453.851 65.9107 459.253C88.7718 470.683 106.734 490.153 116.155 513.893C132.61 554.088 166.399 584.611 207.976 596.921C249.553 609.231 294.647 602.071 330.32 577.326C354.688 560.243 385.212 554.967 413.976 562.63C462.713 575.944 514.841 562.881 551.771 528.213C588.574 493.67 604.904 442.421 594.855 392.93C590.207 368.562 594.729 343.189 607.416 321.961C624.624 292.568 631.407 258.151 626.383 224.362Z" fill="#96D7FF"/>
<path d="M86.5478 395.394C85.7941 395.77 85.0405 396.273 84.4124 396.901C83.6588 397.529 83.1563 398.283 82.9051 399.162C82.1514 400.795 82.1514 402.679 82.9051 404.312C83.2819 405.066 83.7844 405.945 84.4124 406.447C85.6685 407.829 87.3014 408.583 89.1856 408.583V408.708C90.0649 408.708 90.9441 408.457 91.8234 408.08C92.5771 407.703 93.4563 407.201 93.9588 406.573C94.5868 405.945 95.0893 405.317 95.4661 404.312C95.7173 403.433 95.9685 402.679 95.9685 401.674C95.9685 399.916 95.2149 398.157 93.9588 396.775C92.0746 395.017 89.06 394.389 86.5478 395.394Z" fill="white"/>
<path d="M96.0928 367.509H82.2757C78.5074 367.509 75.3672 370.523 75.3672 374.417C75.3672 378.186 78.5074 381.2 82.1501 381.2H95.9672C99.7355 381.2 102.75 378.06 102.75 374.417C102.876 370.523 99.8612 367.509 96.0928 367.509Z" fill="white"/>
<path d="M116.566 340H47.9828C44.2145 340 41.0742 343.14 41.0742 346.909C41.0742 350.677 44.0889 353.691 47.9828 353.691H116.566C120.334 353.691 123.474 350.677 123.474 346.909C123.474 343.14 120.334 340 116.566 340Z" fill="white"/>
<path d="M27.3806 381.2H54.7636C58.5319 381.2 61.6721 378.06 61.6721 374.417C61.6721 370.649 58.6575 367.509 54.7636 367.509H27.3806C23.6123 367.509 20.5977 370.523 20.5977 374.417C20.5977 378.06 23.7379 381.2 27.3806 381.2Z" fill="white"/>
<path d="M61.8002 394.892H6.90855C3.14025 394.892 0 397.906 0 401.8C0 405.568 3.01464 408.709 6.90855 408.709H61.8002C65.5685 408.709 68.5831 405.694 68.5831 401.8C68.5831 397.906 65.4429 394.892 61.8002 394.892Z" fill="white"/>
</g>
<path d="M246.502 130.215C218.79 130.215 195.085 139.308 178.058 156.484C161.03 173.66 152.016 197.459 152.016 225.525V360.687C152.016 389.202 161.364 413.45 179.171 430.963C196.421 447.915 220.014 456.783 247.281 456.783H380.607C408.43 456.783 432.135 447.802 449.162 430.963C466.635 413.899 475.872 389.763 475.872 361.473V225.525C475.872 197.908 466.857 174.221 449.719 156.933C432.58 139.42 408.875 130.215 381.275 130.215H246.502Z" fill="#FF99B1"/>
<path d="M456.953 149.749C437.922 130.328 411.769 120 381.387 120H246.613C216.12 120 190.078 130.104 171.047 149.3C152.016 168.385 142 194.766 142 225.526V360.801C142 392.122 152.35 418.84 172.16 438.261C191.413 457.121 217.344 467 247.281 467H380.496C411.101 467 437.255 457.009 456.285 438.261C475.761 419.177 486 392.683 486 361.474V225.526C485.889 195.215 475.872 169.058 456.953 149.749ZM475.872 361.474C475.872 389.764 466.635 413.9 449.163 430.964C432.135 447.803 408.43 456.784 380.608 456.784H247.17C219.904 456.784 196.31 447.916 179.06 430.964C161.253 413.451 151.905 389.203 151.905 360.688V225.526C151.905 197.46 160.919 173.661 177.947 156.485C194.974 139.309 218.679 130.216 246.391 130.216H381.164C408.764 130.216 432.469 139.421 449.608 156.934C466.747 174.222 475.761 197.909 475.761 225.526V361.474H475.872Z" fill="#2866AE"/>
<path d="M379.05 292.433C378.939 328.693 349.781 358.106 313.945 358.106C277.998 358.106 248.84 328.693 248.84 292.433C248.84 256.172 277.998 226.76 313.945 226.76C349.892 226.76 379.05 256.285 379.05 292.433Z" fill="white"/>
<path d="M400.531 187.469C390.292 187.469 381.945 195.888 381.945 206.216C381.945 216.544 390.292 224.964 400.531 224.964C410.77 224.964 419.116 216.544 419.116 206.216C419.116 195.888 410.658 187.469 400.531 187.469Z" fill="white"/>
<path d="M313.949 215.422C271.881 215.422 237.715 249.886 237.715 292.321C237.715 334.756 271.881 369.22 313.949 369.22C355.906 369.22 390.072 334.756 390.183 292.321C390.183 249.998 355.906 215.422 313.949 215.422ZM313.949 358.218C278.002 358.218 248.844 328.806 248.844 292.545C248.844 256.285 278.002 226.873 313.949 226.873C349.896 226.873 379.054 256.285 379.054 292.545C378.943 328.694 349.673 358.218 313.949 358.218Z" fill="#2866AE"/>
<path d="M400.528 177.479C384.724 177.479 371.926 190.389 371.926 206.33C371.926 222.271 384.724 235.181 400.528 235.181C416.331 235.181 429.129 222.271 429.129 206.33C429.129 190.389 416.331 177.479 400.528 177.479ZM400.528 224.965C390.289 224.965 381.942 216.545 381.942 206.217C381.942 195.889 390.289 187.47 400.528 187.47C410.766 187.47 419.113 195.889 419.113 206.217C419.113 216.545 410.766 224.965 400.528 224.965Z" fill="#2866AE"/>
<path d="M558.736 412.515C558.736 412.515 568.624 412.515 580.821 412.515C593.018 412.515 602.906 403.286 602.906 391.9C602.906 381.41 594.482 372.852 583.629 371.55C583.806 370.496 583.976 369.442 583.976 368.34C583.976 356.955 574.088 347.725 561.891 347.725C555.379 347.725 549.587 350.405 545.548 354.587C543.125 343.938 533.01 335.945 520.876 335.945C506.937 335.945 495.636 346.494 495.636 359.505C495.636 360.63 495.826 361.708 495.99 362.792C493.289 360.766 489.907 359.505 486.171 359.505C478.423 359.505 472.005 364.73 470.68 371.609C469.551 371.444 468.421 371.285 467.241 371.285C455.044 371.285 445.156 380.515 445.156 391.9C445.156 403.286 455.044 412.515 467.241 412.515C479.438 412.515 514.566 412.515 514.566 412.515V415.46H558.736V412.515Z" fill="#FDFCEF"/>
<path d="M569.779 386.01C568.908 386.01 568.201 385.35 568.201 384.538C568.201 377.334 574.48 371.474 582.197 371.474C582.411 371.527 586.847 371.468 590.046 372.275C590.886 372.487 591.384 373.294 591.157 374.077C590.93 374.866 590.065 375.332 589.226 375.114C586.425 374.407 582.285 374.407 582.203 374.419C576.221 374.419 571.356 378.96 571.356 384.538C571.356 385.35 570.65 386.01 569.779 386.01ZM527.186 409.57C526.349 409.57 525.547 409.88 524.955 410.433C524.364 410.985 524.031 411.734 524.031 412.515C524.031 413.296 524.364 414.045 524.955 414.598C525.547 415.15 526.349 415.46 527.186 415.46C528.023 415.46 528.825 415.15 529.417 414.598C530.009 414.045 530.341 413.296 530.341 412.515C530.341 411.734 530.009 410.985 529.417 410.433C528.825 409.88 528.023 409.57 527.186 409.57Z" fill="#472B29" fill-opacity="0.89"/>
<path d="M580.82 415.46H558.735C556.993 415.46 555.58 414.141 555.58 412.515C555.58 410.889 556.993 409.57 558.735 409.57H580.82C591.257 409.57 599.75 401.642 599.75 391.9C599.75 383.089 592.651 375.596 583.23 374.471C582.385 374.365 581.621 373.953 581.11 373.317C580.599 372.681 580.385 371.88 580.517 371.097C580.662 370.189 580.82 369.282 580.82 368.34C580.82 358.598 572.327 350.67 561.89 350.67C556.526 350.67 551.554 352.761 547.888 356.56C547.099 357.379 545.863 357.726 544.733 357.432C543.585 357.143 542.708 356.283 542.462 355.199C540.31 345.752 531.23 338.89 520.875 338.89C508.697 338.89 498.79 348.137 498.79 359.505C498.79 360.347 498.923 361.154 499.049 361.967C499.232 363.163 498.651 364.547 497.522 365.148C496.392 365.748 495.023 365.843 494.013 365.089C491.71 363.363 489.003 362.45 486.17 362.45C480.075 362.45 474.862 366.52 473.783 372.133C473.481 373.706 471.916 374.76 470.193 374.519C469.221 374.377 468.25 374.23 467.24 374.23C456.803 374.23 448.31 382.158 448.31 391.9C448.31 401.642 456.803 409.57 467.24 409.57H514.565C516.307 409.57 517.72 410.889 517.72 412.515C517.72 414.141 516.307 415.46 514.565 415.46H467.24C453.32 415.46 442 404.893 442 391.9C442 378.907 453.32 368.34 467.24 368.34C467.612 368.34 467.972 368.352 468.338 368.375C470.95 361.39 478.036 356.56 486.17 356.56C488.372 356.56 490.518 356.919 492.549 357.62C493.591 343.879 505.895 333 520.875 333C532.429 333 542.745 339.638 547.08 349.339C551.371 346.406 556.558 344.78 561.89 344.78C575.81 344.78 587.13 355.347 587.13 368.34C587.13 368.623 587.124 368.9 587.105 369.176C598.103 371.815 606.06 381.115 606.06 391.9C606.06 404.893 594.74 415.46 580.82 415.46Z" fill="#472B29" fill-opacity="0.89"/>
<path d="M546.113 409.57C545.11 409.57 540.807 409.57 539.803 409.57C538.062 409.57 536.648 410.89 536.648 412.515C536.648 414.141 538.062 415.46 539.803 415.46C540.807 415.46 545.11 415.46 546.113 415.46C547.855 415.46 549.268 414.141 549.268 412.515C549.268 410.89 547.855 409.57 546.113 409.57Z" fill="#472B29" fill-opacity="0.89"/>
<path d="M565.901 137.1C565.301 137.4 564.701 137.8 564.201 138.3C563.601 138.8 563.201 139.4 563.001 140.1C562.401 141.4 562.401 142.9 563.001 144.2C563.301 144.8 563.701 145.5 564.201 145.9C565.201 147 566.501 147.6 568.001 147.6V147.7C568.701 147.7 569.401 147.5 570.101 147.2C570.701 146.9 571.401 146.5 571.801 146C572.301 145.5 572.701 145 573.001 144.2C573.201 143.5 573.401 142.9 573.401 142.1C573.401 140.7 572.801 139.3 571.801 138.2C570.301 136.8 567.901 136.3 565.901 137.1Z" fill="white"/>
<path d="M573.5 114.9H562.5C559.5 114.9 557 117.3 557 120.4C557 123.4 559.5 125.8 562.4 125.8H573.4C576.4 125.8 578.8 123.3 578.8 120.4C578.9 117.3 576.5 114.9 573.5 114.9Z" fill="white"/>
<path d="M589.799 93H535.199C532.199 93 529.699 95.5 529.699 98.5C529.699 101.5 532.099 103.9 535.199 103.9H589.799C592.799 103.9 595.299 101.5 595.299 98.5C595.299 95.5 592.799 93 589.799 93Z" fill="white"/>
<path d="M518.798 125.8H540.598C543.598 125.8 546.098 123.3 546.098 120.4C546.098 117.4 543.698 114.9 540.598 114.9H518.798C515.798 114.9 513.398 117.3 513.398 120.4C513.398 123.3 515.898 125.8 518.798 125.8Z" fill="white"/>
<path d="M546.2 136.7H502.5C499.5 136.7 497 139.1 497 142.2C497 145.2 499.4 147.7 502.5 147.7H546.2C549.2 147.7 551.6 145.3 551.6 142.2C551.6 139.1 549.1 136.7 546.2 136.7Z" fill="white"/>
</svg>
