<svg width="593" height="425" viewBox="0 0 593 425" fill="none" xmlns="http://www.w3.org/2000/svg">
<path d="M518.775 251.562C525.937 238.869 530.038 224.438 530.038 209.095C530.038 170.097 503.795 136.901 466.932 123.82C466.932 123.778 466.938 123.737 466.938 123.69C466.938 55.3778 407.612 0 334.428 0C272.691 0 220.968 39.4689 206.253 92.8087C196.94 89.9521 187.014 88.35 176.678 88.35C128.142 88.35 88.1932 122.471 82.7224 166.404C49.8851 172.889 25.2383 200.077 25.2383 232.655C25.2383 270.062 57.7285 300.39 97.8033 300.39C98.9202 300.39 100.024 300.319 101.122 300.26C101.097 301.291 100.958 302.298 100.958 303.335C100.958 370.022 158.871 424.08 230.313 424.08C270.931 424.08 307.138 406.575 330.857 379.234C344.6 392.339 363.707 400.52 384.908 400.52C414.25 400.52 439.641 384.912 452.211 362.129C458.849 364.102 465.91 365.18 473.248 365.18C511.582 365.18 542.658 336.172 542.658 300.39C542.658 280.888 533.383 263.442 518.775 251.562Z" fill="#0077B5"/>
<path d="M522.635 179.67C522.635 179.67 545.604 179.67 561.284 179.67C576.965 179.67 589.679 167.802 589.679 153.165C589.679 139.424 578.435 128.256 564.092 126.925C564.231 125.859 564.439 124.816 564.439 123.715C564.439 109.078 551.725 97.21 536.044 97.21C526.97 97.21 518.988 101.251 513.789 107.435C512.905 91.909 499.263 79.54 482.409 79.54C464.987 79.54 450.859 92.7277 450.859 108.99C450.859 111.617 451.345 114.114 452.039 116.541C447.988 111.964 441.937 108.99 435.084 108.99C423.846 108.99 414.678 116.853 413.283 126.984C412.141 126.854 411.024 126.66 409.844 126.66C394.164 126.66 381.449 138.528 381.449 153.165C381.449 167.802 394.164 179.67 409.844 179.67C425.525 179.67 469.789 179.67 469.789 179.67H503.705V182.615H522.635V179.67Z" fill="#FDFCEF"/>
<path d="M482.564 76.54C463.426 76.54 447.859 91.0707 447.859 108.935C447.859 109.029 447.859 109.118 447.859 109.212C444.061 107.121 439.719 105.99 435.239 105.99C423.686 105.99 413.716 113.417 410.895 123.689C410.599 123.672 410.302 123.66 409.999 123.66C392.603 123.66 378.449 136.871 378.449 153.11C378.449 169.349 392.603 182.56 409.999 182.56H503.86C505.602 182.56 507.015 181.241 507.015 179.615C507.015 177.989 505.602 176.67 503.86 176.67H409.999C396.079 176.67 384.759 166.103 384.759 153.11C384.759 140.117 396.079 129.55 409.999 129.55C410.737 129.55 411.451 129.65 412.164 129.739L413.053 129.85C413.186 129.868 413.312 129.874 413.444 129.874C414.997 129.874 416.36 128.784 416.568 127.3C417.773 118.506 425.799 111.88 435.239 111.88C440.824 111.88 446.111 114.242 449.759 118.359C450.377 119.054 451.279 119.431 452.194 119.431C452.686 119.431 453.179 119.325 453.633 119.101C454.952 118.471 455.614 117.063 455.236 115.726C454.51 113.164 454.169 111.008 454.169 108.935C454.169 94.3219 466.909 82.43 482.564 82.43C497.588 82.43 509.994 93.4561 510.795 107.539C510.865 108.764 511.742 109.819 512.997 110.19C513.313 110.284 513.635 110.331 513.956 110.331C514.903 110.331 515.824 109.925 516.43 109.2C521.295 103.416 528.495 100.1 536.199 100.1C550.119 100.1 561.439 110.667 561.439 123.66C561.439 124.349 561.332 125.015 561.237 125.68L561.117 126.511C561.016 127.3 561.256 128.089 561.786 128.708C562.316 129.326 563.092 129.721 563.932 129.797C576.905 131.005 586.679 141.03 586.679 153.11C586.679 166.103 575.359 176.67 561.439 176.67H522.79C521.049 176.67 519.635 177.989 519.635 179.615C519.635 181.241 521.049 182.56 522.79 182.56H561.439C578.836 182.56 592.989 169.349 592.989 153.11C592.989 138.992 582.332 127.117 567.73 124.385C567.743 124.143 567.749 123.902 567.749 123.66C567.749 107.421 553.596 94.21 536.199 94.21C528.779 94.21 521.73 96.6603 516.115 101.066C512.341 86.9064 498.686 76.54 482.564 76.54Z" fill="#472B29"/>
<path d="M448.009 123.69C439.156 123.69 431.546 129.575 429.628 137.479C427.312 136.171 424.669 135.47 421.981 135.47C414.396 135.47 408.111 140.754 407.133 147.651C405.852 147.38 404.634 147.25 403.448 147.25C393.8 147.25 385.711 154.318 385.035 163.342C384.972 164.155 385.629 164.862 386.493 164.92C386.531 164.92 386.569 164.92 386.607 164.92C387.427 164.92 388.121 164.326 388.178 163.554C388.739 156.068 395.441 150.195 403.442 150.195C404.887 150.195 406.407 150.443 408.099 150.943C408.237 150.985 408.382 151.002 408.521 151.002C408.868 151.002 409.215 150.885 409.506 150.684C409.91 150.413 410.149 149.93 410.149 149.459C410.149 143.369 415.456 138.415 421.981 138.415C424.801 138.415 427.565 139.405 429.748 141.201C430.045 141.443 430.417 141.572 430.789 141.572C430.991 141.572 431.187 141.537 431.376 141.461C431.931 141.254 432.31 140.771 432.354 140.212C433.01 132.596 439.882 126.635 448.009 126.635C449.322 126.635 450.691 126.836 452.313 127.266C452.458 127.307 452.609 127.325 452.754 127.325C453.442 127.325 454.061 126.895 454.262 126.253C454.502 125.469 454.016 124.656 453.177 124.433C451.272 123.926 449.625 123.69 448.009 123.69ZM535.611 132.525C527.244 132.525 519.786 137.809 517.476 145.377C517.236 146.161 517.722 146.974 518.561 147.197C518.713 147.233 518.858 147.25 518.997 147.25C519.685 147.25 520.316 146.826 520.511 146.178C522.436 139.876 528.645 135.47 535.611 135.47C536.349 135.47 537.062 135.553 537.769 135.641C537.845 135.653 537.914 135.659 537.99 135.659C538.753 135.659 539.435 135.117 539.542 134.381C539.662 133.574 539.056 132.832 538.192 132.726C537.346 132.62 536.488 132.525 535.611 132.525Z" fill="#472B29"/>
<path d="M65.6556 200.26H3.155C1.41344 200.26 0 198.94 0 197.315C0 195.689 1.41344 194.37 3.155 194.37H65.6556C67.3971 194.37 68.8106 195.689 68.8106 197.315C68.8106 198.94 67.4034 200.26 65.6556 200.26ZM85.185 200.26H78.875C77.1334 200.26 75.72 198.94 75.72 197.315C75.72 195.689 77.1334 194.37 78.875 194.37H85.185C86.9266 194.37 88.34 195.689 88.34 197.315C88.34 198.94 86.9329 200.26 85.185 200.26ZM116.678 212.04H59.945C58.2034 212.04 56.79 210.72 56.79 209.095C56.79 207.469 58.2034 206.15 59.945 206.15H116.678C118.42 206.15 119.833 207.469 119.833 209.095C119.833 210.72 118.42 212.04 116.678 212.04ZM47.325 212.04H41.015C39.2734 212.04 37.86 210.72 37.86 209.095C37.86 207.469 39.2734 206.15 41.015 206.15H47.325C49.0666 206.15 50.48 207.469 50.48 209.095C50.48 210.72 49.0729 212.04 47.325 212.04ZM28.395 212.04H15.775C14.0334 212.04 12.62 210.72 12.62 209.095C12.62 207.469 14.0334 206.15 15.775 206.15H28.395C30.1366 206.15 31.55 207.469 31.55 209.095C31.55 210.72 30.1429 212.04 28.395 212.04ZM66.255 223.82H53.635C51.8934 223.82 50.48 222.5 50.48 220.875C50.48 219.249 51.8934 217.93 53.635 217.93H66.255C67.9966 217.93 69.41 219.249 69.41 220.875C69.41 222.5 67.9966 223.82 66.255 223.82ZM85.185 170.81C84.0681 170.81 79.9919 170.81 78.875 170.81C77.1334 170.81 75.72 172.129 75.72 173.755C75.72 175.38 77.1334 176.7 78.875 176.7C79.9919 176.7 84.0681 176.7 85.185 176.7C86.9266 176.7 88.34 175.38 88.34 173.755C88.34 172.129 86.9266 170.81 85.185 170.81ZM85.185 182.59C84.0681 182.59 54.7519 182.59 53.635 182.59C51.8934 182.59 50.48 183.909 50.48 185.535C50.48 187.16 51.8934 188.48 53.635 188.48C54.7519 188.48 84.0681 188.48 85.185 188.48C86.9266 188.48 88.34 187.16 88.34 185.535C88.34 183.909 86.9266 182.59 85.185 182.59ZM116.735 194.37C115.618 194.37 98.9219 194.37 97.805 194.37C96.0634 194.37 94.65 195.689 94.65 197.315C94.65 198.94 96.0634 200.26 97.805 200.26C98.9219 200.26 115.618 200.26 116.735 200.26C118.477 200.26 119.89 198.94 119.89 197.315C119.89 195.689 118.477 194.37 116.735 194.37Z" fill="white"/>
<path d="M394.376 41.2296H331.276C329.535 41.2296 328.121 39.9102 328.121 38.2846C328.121 36.6589 329.535 35.3396 331.276 35.3396H394.376C396.118 35.3396 397.531 36.6589 397.531 38.2846C397.531 39.9102 396.118 41.2296 394.376 41.2296ZM419.616 41.2296H406.996C405.255 41.2296 403.841 39.9102 403.841 38.2846C403.841 36.6589 405.255 35.3396 406.996 35.3396H419.616C421.358 35.3396 422.771 36.6589 422.771 38.2846C422.771 39.9102 421.358 41.2296 419.616 41.2296ZM451.166 53.0096H388.066C386.325 53.0096 384.911 51.6902 384.911 50.0646C384.911 48.4389 386.325 47.1196 388.066 47.1196H451.166C452.908 47.1196 454.321 48.4389 454.321 50.0646C454.321 51.6902 452.914 53.0096 451.166 53.0096ZM375.446 53.0096H369.136C367.395 53.0096 365.981 51.6902 365.981 50.0646C365.981 48.4389 367.395 47.1196 369.136 47.1196H375.446C377.188 47.1196 378.601 48.4389 378.601 50.0646C378.601 51.6902 377.188 53.0096 375.446 53.0096ZM355.727 53.0096H343.896C342.155 53.0096 340.741 51.6902 340.741 50.0646C340.741 48.4389 342.155 47.1196 343.896 47.1196H355.727C357.469 47.1196 358.882 48.4389 358.882 50.0646C358.882 51.6902 357.469 53.0096 355.727 53.0096ZM413.306 29.4496H381.756C380.015 29.4496 378.601 28.1302 378.601 26.5046C378.601 24.8789 380.015 23.5596 381.756 23.5596H413.306C415.048 23.5596 416.461 24.8789 416.461 26.5046C416.461 28.1302 415.054 29.4496 413.306 29.4496ZM394.376 64.7896H381.756C380.015 64.7896 378.601 63.4702 378.601 61.8446C378.601 60.2189 380.015 58.8996 381.756 58.8996H394.376C396.118 58.8996 397.531 60.2189 397.531 61.8446C397.531 63.4702 396.118 64.7896 394.376 64.7896Z" fill="white"/>
<path d="M135.666 350.456C135.666 350.456 145.554 350.456 157.751 350.456C169.948 350.456 179.836 341.226 179.836 329.841C179.836 319.351 171.412 310.792 160.559 309.491C160.736 308.436 160.906 307.382 160.906 306.281C160.906 294.895 151.018 285.666 138.821 285.666C132.309 285.666 126.516 288.346 122.478 292.528C120.055 281.878 109.94 273.886 97.8059 273.886C83.8671 273.886 72.5659 284.435 72.5659 297.446C72.5659 298.571 72.7552 299.649 72.9193 300.732C70.2186 298.706 66.8365 297.446 63.1009 297.446C55.3523 297.446 48.935 302.67 47.6099 309.55C46.4804 309.385 45.3509 309.226 44.1709 309.226C31.9737 309.226 22.0859 318.455 22.0859 329.841C22.0859 341.226 31.9737 350.456 44.1709 350.456C56.3682 350.456 91.4959 350.456 91.4959 350.456V353.401H135.666V350.456Z" fill="#FDFCEF"/>
<path d="M146.708 323.951C145.838 323.951 145.131 323.291 145.131 322.478C145.131 315.275 151.409 309.414 159.127 309.414C159.341 309.467 163.777 309.408 166.976 310.215C167.815 310.427 168.314 311.234 168.087 312.017C167.86 312.807 166.995 313.272 166.156 313.054C163.354 312.347 159.215 312.347 159.133 312.359C153.151 312.359 148.286 316.9 148.286 322.478C148.286 323.291 147.579 323.951 146.708 323.951ZM104.116 347.511C103.279 347.511 102.477 347.821 101.885 348.373C101.293 348.925 100.961 349.675 100.961 350.456C100.961 351.237 101.293 351.986 101.885 352.538C102.477 353.09 103.279 353.401 104.116 353.401C104.953 353.401 105.755 353.09 106.347 352.538C106.939 351.986 107.271 351.237 107.271 350.456C107.271 349.675 106.939 348.925 106.347 348.373C105.755 347.821 104.953 347.511 104.116 347.511Z" fill="#472B29"/>
<path d="M157.75 353.4H135.665C133.923 353.4 132.51 352.081 132.51 350.455C132.51 348.83 133.923 347.51 135.665 347.51H157.75C168.186 347.51 176.68 339.582 176.68 329.84C176.68 321.029 169.581 313.537 160.16 312.412C159.315 312.306 158.551 311.894 158.04 311.257C157.529 310.621 157.314 309.82 157.447 309.037C157.592 308.13 157.75 307.223 157.75 306.28C157.75 296.538 149.256 288.61 138.82 288.61C133.456 288.61 128.484 290.701 124.818 294.5C124.029 295.319 122.792 295.667 121.663 295.372C120.514 295.084 119.637 294.224 119.391 293.14C117.239 283.692 108.159 276.83 97.8047 276.83C85.6264 276.83 75.7197 286.078 75.7197 297.445C75.7197 298.288 75.8522 299.095 75.9784 299.907C76.1614 301.103 75.5809 302.487 74.4514 303.088C73.3219 303.689 71.9526 303.783 70.943 303.029C68.6399 301.303 65.9329 300.39 63.0997 300.39C57.0042 300.39 51.7922 304.46 50.7132 310.074C50.4103 311.646 48.8454 312.701 47.1228 312.459C46.151 312.318 45.1793 312.17 44.1697 312.17C33.7329 312.17 25.2397 320.098 25.2397 329.84C25.2397 339.582 33.7329 347.51 44.1697 347.51H91.4947C93.2362 347.51 94.6497 348.83 94.6497 350.455C94.6497 352.081 93.2362 353.4 91.4947 353.4H44.1697C30.2498 353.4 18.9297 342.834 18.9297 329.84C18.9297 316.847 30.2498 306.28 44.1697 306.28C44.542 306.28 44.9016 306.292 45.2676 306.316C47.88 299.33 54.9661 294.5 63.0997 294.5C65.3019 294.5 67.4473 294.86 69.4791 295.561C70.5202 281.819 82.8247 270.94 97.8047 270.94C109.358 270.94 119.675 277.578 124.01 287.279C128.301 284.346 133.488 282.72 138.82 282.72C152.74 282.72 164.06 293.287 164.06 306.28C164.06 306.563 164.053 306.84 164.034 307.117C175.033 309.756 182.99 319.056 182.99 329.84C182.99 342.834 171.67 353.4 157.75 353.4Z" fill="#472B29"/>
<path d="M123.043 347.511C122.04 347.511 117.736 347.511 116.733 347.511C114.992 347.511 113.578 348.83 113.578 350.456C113.578 352.081 114.992 353.401 116.733 353.401C117.736 353.401 122.04 353.401 123.043 353.401C124.785 353.401 126.198 352.081 126.198 350.456C126.198 348.83 124.785 347.511 123.043 347.511Z" fill="#472B29"/>
<rect x="196.949" y="147.04" width="175" height="170" stroke="white" stroke-width="5"/>
<path d="M209.673 205.35H240.066V298.739H209.673V205.35ZM224.928 158.428C234.721 158.428 242.634 165.873 242.634 174.951C242.634 184.028 234.721 191.473 224.928 191.473C215.079 191.473 207.223 184.029 207.223 174.951C207.223 165.872 215.079 158.428 224.928 158.428Z" fill="white" stroke="white"/>
<path d="M357.586 247.515V298.739H327.251V253.353C327.251 247.894 327.215 241.526 325.111 236.525C324.053 234.009 322.464 231.819 320.083 230.262C317.702 228.707 314.571 227.81 310.471 227.81C302.157 227.81 297.279 230.865 294.519 235.566C291.791 240.212 291.182 246.386 291.182 252.535V298.739H260.847V205.349H289.84V217.78V218.28H290.34H290.748H291.04L291.184 218.026C295.294 210.766 305.338 203.058 320.449 203.058C336.211 203.058 345.436 207.899 350.757 215.782C356.108 223.71 357.586 234.817 357.586 247.515Z" fill="white" stroke="white"/>
</svg>
