          <svg
            viewBox="0 0 46 46"
            fill="none"
            xmlns="http://www.w3.org/2000/svg"
          >
            <g clip-path="url(#clip0_171_1938)">
              <path
                d="M42.6043 0H3.39569C2.4951 0 1.63139 0.35776 0.994576 0.994576C0.35776 1.63139 0 2.4951 0 3.39569V42.6043C0 43.5049 0.35776 44.3686 0.994576 45.0054C1.63139 45.6422 2.4951 46 3.39569 46H42.6043C43.5049 46 44.3686 45.6422 45.0054 45.0054C45.6422 44.3686 46 43.5049 46 42.6043V3.39569C46 2.4951 45.6422 1.63139 45.0054 0.994576C44.3686 0.35776 43.5049 0 42.6043 0ZM13.7106 39.1862H6.79458V17.2181H13.7106V39.1862ZM10.2478 14.1738C9.46328 14.1693 8.69767 13.9326 8.04757 13.4935C7.39748 13.0544 6.89203 12.4325 6.59502 11.7064C6.298 10.9803 6.22274 10.1825 6.37873 9.41362C6.53471 8.64477 6.91495 7.93936 7.47146 7.38641C8.02797 6.83347 8.73581 6.45776 9.50564 6.30672C10.2755 6.15567 11.0728 6.23605 11.797 6.53772C12.5212 6.83939 13.1398 7.34882 13.5747 8.00172C14.0097 8.65463 14.2415 9.42174 14.2408 10.2063C14.2482 10.7315 14.1498 11.2528 13.9514 11.7392C13.7531 12.2256 13.4588 12.6671 13.0862 13.0373C12.7136 13.4075 12.2702 13.699 11.7826 13.8942C11.2949 14.0895 10.773 14.1845 10.2478 14.1738ZM39.2022 39.2054H32.2894V27.2039C32.2894 23.6644 30.7849 22.5719 28.8426 22.5719C26.7918 22.5719 24.7793 24.1181 24.7793 27.2933V39.2054H17.8633V17.234H24.5142V20.2783H24.6036C25.2713 18.9271 27.6096 16.6175 31.1778 16.6175C35.0367 16.6175 39.2054 18.9079 39.2054 25.6163L39.2022 39.2054Z"
                fill="#0A66C2"></path>
            </g>
            <defs>
              <clipPath id="clip0_171_1938">
                <rect width="46" height="46" fill="white"></rect>
              </clipPath>
            </defs>
          </svg>